<svg id="svg4314" xmlns:rdf="http://www.w3.org/1999/02/22-rdf-syntax-ns#" xmlns="http://www.w3.org/2000/svg" height="104.19mm" width="93.918mm" version="1.1" xmlns:cc="http://creativecommons.org/ns#" xmlns:dc="http://purl.org/dc/elements/1.1/" viewBox="0 0 332.78129 369.16868">
 <g id="layer1" fill-rule="evenodd" transform="translate(-242.18 -142.06)">
  <path id="path5484" d="m404.35 461.67c56.787 0 102.84 11.096 102.84 24.78 0 13.683-46.053 24.78-102.84 24.78s-102.84-11.097-102.84-24.78c0-13.684 46.053-24.78 102.84-24.78" fill-opacity=".25" fill="#003d26"/>
  <path id="path5486" d="m334.11 247.06c40.127-42.558 104.53-43.243 143.82-1.5198 39.292 41.709 39.292 104.28 0 139.75-39.292 35.467-103.69 36.152-143.82 1.5198-40.141-34.619-40.141-97.189 0-139.75" fill="#093"/>
  <path id="path5488" d="m388.79 382.97h37.256v101.1h-37.256v-101.1z" fill="#630"/>
  <g fill="#093">
   <path id="path5490" d="m295.08 289.59c30.448-32.62 79.282-33.14 109.1-1.1632 29.804 31.962 29.804 79.914 0 107.1-29.818 27.186-78.652 27.706-109.1 1.1632-30.448-26.528-30.448-74.48 0-107.1"/>
   <path id="path5492" d="m297.91 229.85c17.127-18.11 44.603-18.411 61.361-0.65688 16.771 17.754 16.771 44.378 0 59.477-16.757 15.085-44.234 15.372-61.361 0.64337s-17.127-41.367 0-59.463"/>
   <path id="path5494" d="m328.04 194.04c9.03-9.5485 23.517-9.7072 32.352-0.34612 8.8421 9.3602 8.8421 23.397 0 31.358-8.8347 7.9532-23.322 8.1052-32.352 0.33937-9.0299-7.7655-9.0299-21.81 0-31.351"/>
   <path id="path5496" d="m449.32 181.37c9.03-9.5489 23.517-9.7076 32.352-0.3465 8.8414 9.3604 8.8414 23.398 0 31.359-8.8351 7.9529-23.322 8.1046-32.352 0.339-9.0299-7.7657-9.0299-21.81 0-31.351"/>
   <path id="path5498" d="m433.88 165.73c5.3441-5.6509 13.918-5.7444 19.147-0.2045 5.2327 5.5396 5.2327 13.848 0 18.559-5.2292 4.7072-13.803 4.7965-19.147 0.20088-5.3444-4.596-5.3444-12.908 0-18.555"/>
   <path id="path5500" d="m522.75 383.57c5.344-5.6511 13.918-5.7451 19.146-0.2055 5.2339 5.5404 5.2339 13.848 0 18.559-5.2282 4.7066-13.802 4.797-19.146 0.20063-5.3445-4.5961-5.3445-12.908 0-18.555"/>
   <path id="path5502" d="m396.9 148.68c4.3861-4.6386 11.422-4.7155 15.714-0.16838 4.2947 4.5461 4.2947 11.364 0 15.231-4.2916 3.8626-11.328 3.9362-15.714 0.16488-4.3859-3.7722-4.3859-10.594 0-15.227"/>
   <path id="path5504" d="m494.14 269.72c10.873-11.497 28.316-11.688 38.954-0.41713 10.647 11.271 10.647 28.173 0 37.758-10.638 9.5761-28.081 9.7586-38.954 0.40888-10.873-9.3511-10.873-26.262 0-37.75"/>
   <path id="path5506" d="m500.95 338.17c12.716-13.446 33.116-13.669 45.556-0.4875 12.452 13.181 12.452 32.947 0 44.157-12.441 11.199-32.84 11.413-45.556 0.478-12.716-10.936-12.716-30.712 0-44.148"/>
   <path id="path5508" d="m386.92 363.5c12.715-13.446 33.116-13.67 45.557-0.48788 12.451 13.181 12.451 32.948 0 44.158-12.441 11.199-32.842 11.413-45.557 0.47763s-12.715-30.712 0-44.147"/>
   <path id="path5510" d="m280.13 359.89c12.715-13.446 33.115-13.669 45.557-0.48788 12.451 13.181 12.451 32.948 0 44.157-12.442 11.2-32.842 11.413-45.557 0.478-12.716-10.935-12.716-30.712 0-44.147"/>
   <path id="path5512" d="m264.25 325.88c10.86-11.484 28.282-11.674 38.908-0.41675 10.634 11.258 10.634 28.139 0 37.713-10.625 9.5651-28.048 9.7472-38.908 0.40813-10.86-9.3394-10.86-26.23 0-37.705"/>
   <path id="path5514" d="m253.53 364.85c6.2162-6.5728 16.188-6.6819 22.27-0.23837 6.0861 6.4435 6.0861 16.106 0 21.586-6.082 5.4748-16.054 5.5792-22.27 0.2335-6.2159-5.3458-6.2159-15.014 0-21.582"/>
   <path id="path5516" d="m283.09 280.97c4.6063-4.8714 11.998-4.9521 16.505-0.17675 4.5105 4.7752 4.5105 11.937 0 15.998-4.5074 4.0578-11.899 4.135-16.505 0.17363-4.6073-3.9625-4.6073-11.128 0-15.995"/>
   <path id="path5518" d="m466.13 361.37c14.558-15.395 37.915-15.65 52.16-0.5585 14.256 15.092 14.256 37.723 0 50.558-14.244 12.822-37.601 13.067-52.16 0.54662-14.558-12.52-14.558-35.163 0-50.546"/>
   <path id="path5520" d="m324.53 220.99c-2.8935 3.0598-7.5352 3.1108-10.366 0.11138-2.8333-2.9995-2.8333-7.4978 0-10.048 2.8312-2.5486 7.4728-2.5975 10.366-0.10913 2.8935 2.4881 2.8935 6.9881 0 10.046"/>
   <path id="path5522" d="m361.25 174.63c24.424-26.159 63.606-26.584 87.523-0.93088 23.918 25.638 23.918 64.118 0 85.923-23.917 21.806-63.099 22.216-87.523 0.93075-24.424-21.286-24.424-59.764 0-85.923"/>
   <path id="path5524" d="m421.73 220.75c24.424-26.172 63.606-26.583 87.523-0.94462 23.904 25.653 23.904 64.118 0 85.924-23.917 21.806-63.1 22.231-87.523 0.94424-24.424-21.299-24.424-59.764 0-85.923"/>
   <path id="path5526" d="m413.04 292.3c29.078-31.156 75.735-31.648 104.21-1.1229 28.462 30.539 28.462 76.341 0 102.31-28.477 25.968-75.134 26.46-104.21 1.1086-29.079-25.351-29.079-71.14 0-102.29"/>
  </g>
  <g fill="#630">
   <path id="path5528" d="m351.66 490.11 44.23-34.458 17.089 27.567-61.319 6.8914z"/>
   <path id="path5530" d="m452.18 490.11-34.3-34.458-3.8986 25.843 38.199 8.6145z"/>
   <path id="path5532" d="m426.05 498.72-3.2617-27.567-15.837 10.338 19.099 17.229z"/>
  </g>
  <g fill="#17ab2e">
   <path id="path5534" d="m306.13 238.78c3.2024-2.9984 8.6755-10.558 11.93-12.508 3.9084-2.3425 9.0562-1.0542 11.399 2.8538 2.3428 3.9082 1.0543 9.0549-2.8542 11.398-4.6693 2.7985-16.316 0.26325-20.475-1.7436"/>
   <path id="path5536" d="m296.6 211.83c5.4489-1.6544 16.157-7.3151 21.065-7.7201 5.8947-0.4855 11.147 3.9668 11.633 9.8602 0.48582 5.894-3.9669 11.146-9.8618 11.632-7.0405 0.58013-19.146-9.0506-22.836-13.772"/>
   <path id="path5538" d="m319.86 185.49c5.3164 2.0392 17.245 4.1456 21.366 6.8396 4.9511 3.2354 6.363 9.9751 3.1268 14.925-3.236 4.95-9.9765 6.3618-14.927 3.1252-5.9126-3.8644-9.5527-18.897-9.5658-24.89"/>
   <path id="path5540" d="m345.33 171.42c2.9439 4.8739 11.066 13.86 12.664 18.517 1.9208 5.5924-1.1042 11.779-6.6981 13.698-5.5943 1.9204-11.781-1.1034-13.701-6.6969-2.2936-6.6806 4.0657-20.78 7.735-25.518"/>
   <path id="path5542" d="m378.43 179.04c-4.4865 1.6735-14.533 3.3534-18.019 5.5864-4.1881 2.6826-5.427 8.3384-2.7436 12.526 2.6822 4.1875 8.3393 5.4259 12.527 2.744 5.0017-3.2042 8.1788-15.817 8.2358-20.856"/>
   <path id="path5544" d="m387.26 217.51c-4.1945-1.3574-12.404-5.8925-16.197-6.2752-4.5566-0.4595-8.6859 2.913-9.1458 7.4686-0.45969 4.556 2.913 8.6846 7.4696 9.1442 5.4415 0.5495 14.95-6.7341 17.874-10.338"/>
  </g>
  <g fill="#40ba54">
   <path id="path5546" d="m375.74 197.39c-3.8124 2.1788-12.657 5.1825-15.483 7.7191-3.3931 3.0472-3.6791 8.3495-0.63146 11.742 3.0473 3.3935 8.3499 3.6788 11.743 0.63175 4.0533-3.6392 5.0645-15.524 4.3709-20.093"/>
   <path id="path5548" d="m320.05 198.46c0.91888 5.6182 0.56245 17.725 2.3645 22.306 2.1649 5.5031 8.4782 8.252 13.982 6.0881 5.5045-2.1646 8.2542-8.4774 6.089-13.981-2.5856-6.5725-16.57-13.186-22.436-14.413"/>
   <path id="path5550" d="m344.99 201.17c-1.7889 5.4054-7.7146 15.968-8.2408 20.863-0.63147 5.8801 3.6891 11.241 9.5701 11.873 5.8806 0.6315 11.242-3.6896 11.874-9.569 0.75485-7.0229-8.5735-19.361-13.203-23.168"/>
  </g>
  <g fill="#17ab2e">
   <path id="path5552" d="m433.12 191.05c-2.3283-2.1805-6.3088-7.678-8.675-9.096-2.8428-1.704-6.5854-0.76675-8.2897 2.075-1.7039 2.842-0.76611 6.5849 2.076 8.2888 3.3946 2.0346 11.865 0.19137 14.889-1.2678"/>
   <path id="path5554" d="m440.05 171.45c-3.9627-1.2025-11.75-5.3199-15.319-5.6136-4.2859-0.35325-8.1064 2.8846-8.4593 7.1702-0.35343 4.2864 2.8849 8.1056 7.1719 8.4586 5.1194 0.42237 13.923-6.5814 16.607-10.015"/>
   <path id="path5556" d="m423.14 152.29c-3.8659 1.4825-12.54 3.015-15.538 4.9734-3.6005 2.3531-4.6264 7.2539-2.2733 10.854 2.3535 3.6 7.2549 4.6258 10.855 2.273 4.2997-2.8105 6.9466-13.742 6.9561-18.1"/>
   <path id="path5558" d="m404.62 142.06c-2.1406 3.5444-8.0463 10.079-9.2093 13.466-1.3963 4.0678 0.80337 8.566 4.8717 9.962 4.0676 1.3965 8.5665-0.80287 9.9634-4.8702 1.668-4.8582-2.957-15.112-5.6258-18.558"/>
   <path id="path5560" d="m380.55 147.6c3.2625 1.2175 10.569 2.4385 13.104 4.0631 3.0452 1.9502 3.9468 6.0634 1.9952 9.1085-1.9512 3.0451-6.0641 3.9454-9.1097 1.9951-3.6374-2.33-5.9472-11.503-5.9895-15.167"/>
   <path id="path5562" d="m374.13 175.58c3.0506-0.9875 9.0202-4.2852 11.779-4.5634 3.3135-0.33487 6.3173 2.1179 6.6518 5.4308 0.3338 3.313-2.1186 6.3156-5.432 6.6501-3.9577 0.39975-10.872-4.8975-12.998-7.5175"/>
  </g>
  <g fill="#40ba54">
   <path id="path5564" d="m382.51 160.95c2.7726 1.5835 9.2043 3.7688 11.259 5.6134 2.4678 2.2156 2.6752 6.0711 0.45932 8.539-2.2159 2.4672-6.072 2.6749-8.5403 0.45887-2.9473-2.6458-3.6826-11.289-3.1783-14.611"/>
   <path id="path5566" d="m423 161.72c-0.66834 4.0854-0.4093 12.889-1.7201 16.222-1.5742 4.0014-6.1655 6.0005-10.168 4.4266-4.0023-1.5742-6.0021-6.1646-4.428-10.166 1.88-4.7806 12.05-9.5896 16.316-10.482"/>
   <path id="path5568" d="m404.87 163.7c1.3013 3.9305 5.6105 11.612 5.9926 15.172 0.45956 4.276-2.6828 8.1744-6.9594 8.6342-4.2767 0.45925-8.1755-2.6826-8.6348-6.9586-0.54932-5.107 6.2346-14.08 9.6016-16.847"/>
  </g>
  <g fill="#17ab2e">
   <path id="path5570" d="m326.21 234.2c-2.7898 1.5484-9.2427 3.6528-11.318 5.4701-2.4935 2.1838-2.7479 6.0329-0.56458 8.5256 2.1841 2.4922 6.0341 2.7471 8.5267 0.564 2.9779-2.6082 3.8182-11.234 3.3557-14.56"/>
   <path id="path5572" d="m309.67 221.6c-2.3595 3.4026-8.665 9.5528-10.039 12.859-1.6496 3.9714 0.26266 8.5989 4.2348 10.248 3.9727 1.6495 8.6008-0.2625 10.25-4.2339 1.97-4.743-1.9997-15.268-4.4464-18.874"/>
   <path id="path5574" d="m286.26 231.82c0.22791 4.134-0.97176 12.86-0.0255 16.313 1.1368 4.1475 5.4883 6.626 9.6366 5.489 4.1481-1.1368 6.6269-5.4872 5.4898-9.6346-1.3581-4.9539-10.955-10.823-15.101-12.167"/>
   <path id="path5576" d="m270.84 246.32c2.7185 3.1231 7.1299 10.746 9.9975 12.89 3.4445 2.576 8.4009 1.8602 10.977-1.5839 2.576-3.4438 1.8605-8.3994-1.5837-10.975-4.1141-3.0768-15.293-1.8164-19.391-0.33175"/>
   <path id="path5578" d="m268.74 270.92c2.1586-2.7322 5.5599-9.3119 7.8832-11.227 2.79-2.3006 6.9816-1.8981 9.2833 0.89187 2.301 2.79 1.8976 6.9814-0.89238 9.282-3.333 2.7482-12.773 2.1366-16.274 1.0535"/>
   <path id="path5580" d="m293.41 285.61c-0.005-3.206-1.3158-9.8982-0.73536-12.609 0.6971-3.2559 3.9521-5.3631 7.2089-4.6665 3.2561 0.697 5.3631 3.9515 4.6668 7.2078-0.83312 3.8885-7.9941 8.8466-11.14 10.068"/>
  </g>
  <g fill="#40ba54">
   <path id="path5582" d="m282.05 273.15c2.3577-2.1532 6.4086-7.6058 8.7944-8.9958 2.8659-1.67 6.5999-0.68637 8.2702 2.1788 1.6706 2.8651 0.68647 6.5991-2.1791 8.269-3.4226 1.9946-11.876 0.0461-14.885-1.452"/>
   <path id="path5584" d="m295.19 234.84c3.6853 1.8882 12.146 4.3395 14.917 6.6072 3.328 2.7245 3.8245 7.7067 1.0993 11.035-2.7251 3.3271-7.7081 3.8235-11.036 1.0988-3.9747-3.2539-5.4369-14.407-4.9801-18.741"/>
   <path id="path5586" d="m291.51 252.71c4.1406-0.0344 12.774-1.7816 16.281-1.0552 4.2121 0.87313 6.9604 5.0584 6.0875 9.2692-0.8725 4.2109-5.0591 6.9595-9.2706 6.0868-5.0301-1.0428-11.494-10.249-13.098-14.301"/>
  </g>
  <g fill="#17ab2e">
   <path id="path5588" d="m423.38 222.89c4.3529-0.5485 13.221-3.4569 17.001-3.1262 4.54 0.3965 7.9509 4.4602 7.554 8.9996-0.39681 4.539-4.4605 7.9498-9.0013 7.5529-5.422-0.47412-13.364-9.3604-15.554-13.426"/>
   <path id="path5590" d="m431.48 195.48c5.382 1.8581 17.375 3.5581 21.586 6.1104 5.0577 3.0661 6.6974 9.753 3.6318 14.81-3.0666 5.0562-9.7548 6.6961-14.812 3.6305-6.0407-3.6618-10.189-18.563-10.405-24.551"/>
   <path id="path5592" d="m465.77 187.79c3.1079 4.7711 11.53 13.476 13.285 18.076 2.1097 5.5254-0.70335 11.81-6.2289 13.918-5.5255 2.1089-11.811-0.703-13.92-6.2281-2.5192-6.599 3.3577-20.906 6.864-25.766"/>
   <path id="path5594" d="m494.65 191.36c-0.47794 5.6728 0.82324 17.714-0.61584 22.423-1.728 5.6555-7.8081 8.8888-13.464 7.1611-5.6556-1.7285-8.89-7.8066-7.162-13.462 2.0639-6.7546 15.489-14.439 21.242-16.122"/>
   <path id="path5596" d="m516.97 216.94c-4.6144-1.2774-13.735-5.8129-17.868-6.0512-4.9656-0.28487-9.2887 3.5674-9.574 8.5319-0.28566 4.9645 3.5669 9.2874 8.5325 9.5722 5.931 0.34163 15.906-8.0065 18.91-12.053"/>
   <path id="path5598" d="m501.55 253.27c-2.599-3.5606-6.5844-12.05-9.4312-14.586-3.4186-3.0461-8.7421-2.7386-11.788 0.68038-3.0467 3.4189-2.7394 8.7409 0.68009 11.787 4.0838 3.6379 16.057 3.3201 20.54 2.1185"/>
  </g>
  <g fill="#40ba54">
   <path id="path5600" d="m504.03 230.22c-4.3656-0.47413-13.29-3.2315-17.067-2.8358-4.5356 0.47512-7.8789 4.6006-7.4033 9.1364 0.47519 4.5355 4.6013 7.8782 9.1377 7.4024 5.4178-0.56724 13.212-9.5974 15.333-13.703"/>
   <path id="path5602" d="m458.31 198.41c-2.5541 5.0889-9.9483 14.681-11.179 19.449-1.4774 5.7264 2.0207 11.657 7.7477 13.134 5.7272 1.4779 11.659-2.0204 13.136-7.7464 1.7645-6.8392-5.6768-20.4-9.7054-24.836"/>
   <path id="path5604" d="m476.91 215.24c-4.6212 3.3265-15.619 8.4019-18.919 12.057-3.9627 4.3898-3.6105 11.266 0.77999 15.228 4.3907 3.9629 11.267 3.6106 15.231-0.77913 4.7328-5.2431 4.4222-20.708 2.9077-26.506"/>
  </g>
  <g fill="#17ab2e">
   <path id="path5606" d="m332.54 277c4.2356-1.1466 12.615-5.2565 16.404-5.4539 4.5513-0.23637 8.4931 3.3154 8.7294 7.8658 0.2364 4.5506-3.3158 8.4919-7.8669 8.7286-5.4355 0.28163-14.534-7.4176-17.266-11.14"/>
   <path id="path5608" d="m348.17 261.51c5.6892-0.2225 17.482-2.9919 22.332-2.1419 5.8253 1.0205 9.7813 6.6565 8.761 12.482-1.021 5.8252-6.6578 9.7802-12.483 8.7594-6.9584-1.2189-16.234-13.597-18.61-19.099"/>
   <path id="path5610" d="m378.83 228.73c3.739 4.2934 13.287 11.747 15.664 16.059 2.8545 5.1789 0.94088 11.793-4.2387 14.647-5.1796 2.8552-11.795 0.94075-14.65-4.2381-3.4102-6.1851 0.42594-21.17 3.2248-26.468"/>
   <path id="path5612" d="m407.92 228.25c0.31367 5.6849 3.2723 17.43 2.5002 22.292-0.92676 5.8409-6.4994 9.8862-12.341 8.959-5.842-0.92738-9.8879-6.4989-8.9601-12.34 1.107-6.9757 13.337-16.447 18.801-18.911"/>
   <path id="path5614" d="m433.58 250.49c-4.7469-0.62425-14.408-3.8526-18.534-3.5146-4.9574 0.40575-8.7038 4.8204-8.2982 9.7764 0.40543 4.9564 4.8203 8.7031 9.7778 8.297 5.92-0.48437 14.642-10.135 17.055-14.559"/>
   <path id="path5616" d="m423.34 288.61c-3.0679-3.1659-8.1919-11.02-11.363-13.137-3.8089-2.5424-9.0378-1.5002-11.581 2.3081-2.543 3.8084-1.5005 9.0369 2.3077 11.579 4.5495 3.0362 16.363 1.0615 20.636-0.74987"/>
   <path id="path5618" d="m441.8 264.64c-3.5566 0.1105-11.029-1.1002-14.016-0.35825-3.5875 0.8915-5.807 4.5782-4.9153 8.1649 0.89163 3.5861 4.5786 5.8054 8.1656 4.9141 4.2841-1.064 9.5254-9.1874 10.765-12.721"/>
   <path id="path5620" d="m357.07 241.45c2.2478 5.2306 4.8238 17.065 7.6783 21.077 3.429 4.8185 10.219 5.9628 15.038 2.5341 4.8193-3.4281 5.9643-10.218 2.535-15.036-4.0953-5.755-19.262-8.7986-25.252-8.5748"/>
   <path id="path5622" d="m320.99 253.69c3.7902 2.8534 10.55 10.348 14.274 12.068 4.4733 2.0661 9.8585 0.0854 11.925-4.388 2.0668-4.4728 0.0855-9.8568-4.3879-11.923-5.3434-2.4686-17.572 1.604-21.811 4.2431"/>
  </g>
  <g fill="#008a30">
   <path id="path5624" d="m257.38 372.66c3.9911 1.8216 11.589 7.2422 15.295 8.0536 4.4516 0.97513 8.919-1.8865 9.8943-6.3372 0.97489-4.451-1.8868-8.9181-6.3385-9.8936-5.3168-1.1646-15.548 4.9494-18.851 8.1772"/>
   <path id="path5626" d="m270.27 390.49c5.5779 1.1474 16.761 5.8011 21.685 5.7532 5.9142-0.0577 10.736-4.9738 10.678-10.886-0.057-5.9139-4.9737-10.735-10.888-10.678-7.0635 0.0684-18.234 10.77-21.475 15.811"/>
   <path id="path5628" d="m295.17 427.83c4.3886-3.6276 15.024-9.4249 18.072-13.292 3.6608-4.6446 2.851-11.482-1.7945-15.143-4.6453-3.6606-11.483-2.8506-15.145 1.7939-4.3731 5.5471-3.0314 20.956-1.1329 26.641"/>
   <path id="path5630" d="m323.8 433.04c1.2364-5.5576 6.0702-16.662 6.101-21.586 0.0369-5.9135-4.8012-10.813-10.716-10.851-5.9142-0.0371-10.814 4.8012-10.852 10.715-0.045 7.0629 10.477 18.401 15.466 21.722"/>
   <path id="path5632" d="m352.74 415.28c-4.7858-0.15662-14.843 1.4528-18.86 0.44763-4.8242-1.2086-7.8017-6.1746-6.5929-10.999 1.208-4.8235 6.1748-7.8002 11-6.5916 5.7614 1.4421 12.793 12.385 14.454 17.143"/>
   <path id="path5634" d="m348.85 376c-3.5424 2.6234-9.8784 9.5375-13.352 11.11-4.1728 1.8871-9.1618 0.008-11.05-4.1648-1.8874-4.1716-0.007-9.1602 4.1651-11.048 4.9836-2.2542 16.317 1.6194 20.237 4.1032"/>
   <path id="path5636" d="m363.16 402.65c-3.491-0.68813-11.061-0.71188-13.887-1.9308-3.394-1.4641-4.9823-5.4628-3.5186-8.8565 1.4642-3.393 5.4638-4.9822 8.8578-3.5181 4.0537 1.7486 7.9001 10.617 8.5476 14.305"/>
   <path id="path5638" d="m275.78 411.73c3.0701-4.7945 7.541-16.051 11.011-19.543 4.1682-4.1949 11.055-4.218 15.25-0.0493 4.1962 4.1676 4.2181 11.053 0.0499 15.248-4.9787 5.011-20.439 5.541-26.312 4.3445"/>
   <path id="path5640" d="m242.18 393.78c4.2044-2.1971 12.095-8.489 16.05-9.58 4.7512-1.31 9.7409 1.5225 11.051 6.2728 1.3101 4.7501-1.5228 9.7391-6.2733 11.049-5.6747 1.5644-17.076-4.4468-20.828-7.7418"/>
   <path id="path5642" d="m268.02 324.04c2.8853 2.3985 7.9405 8.5759 10.817 10.078 3.4552 1.8032 7.7851 0.44262 9.5885-3.0118 1.8031-3.4555 0.44294-7.7842-3.0126-9.5871-4.1275-2.154-13.944 0.59775-17.393 2.5214"/>
   <path id="path5644" d="m274.66 341.64c4.3465 2.1976 12.532 8.5465 16.607 9.6112 4.8943 1.2785 9.9769-1.6972 11.255-6.5912 1.2789-4.8932-1.6971-9.9755-6.5918-11.254-5.8456-1.5271-17.465 4.8005-21.271 8.2339"/>
   <path id="path5646" d="m286.84 378.05c4.4365-2.0094 14.515-4.41 17.898-6.918 4.0633-3.0121 4.9283-8.837 1.9154-12.901-3.0122-4.0628-8.8382-4.9278-12.902-1.9152-4.8532 3.5982-7.2024 16.617-6.9111 21.734"/>
   <path id="path5648" d="m309.3 388.77c2.267-4.3098 8.7475-12.391 9.8776-16.448 1.3576-4.8731-1.537-10.002-6.4104-11.358-4.8731-1.3578-10.003 1.5368-11.36 6.4095-1.6212 5.8195 4.5201 17.537 7.8929 21.397"/>
   <path id="path5650" d="m337.17 380.59c-3.9144-1.2029-12.577-2.1295-15.667-3.8608-3.7112-2.0792-5.0546-6.8454-2.975-10.556 2.0794-3.7101 6.8462-5.0531 10.557-2.9739 4.4325 2.4825 7.7811 13.092 8.0844 17.391"/>
   <path id="path5652" d="m342.77 347.31c-3.5126 1.3712-10.293 5.6572-13.513 6.1756-3.8673 0.6225-7.5634-2.0484-8.1862-5.9152-0.62221-3.8664 2.049-7.5621 5.9157-8.185 4.619-0.74263 13.104 4.9961 15.783 7.9246"/>
   <path id="path5654" d="m348.6 372.51c-2.7273-1.3508-8.9698-3.0682-11.028-4.7076-2.4732-1.9694-2.8872-5.6261-0.91788-8.0994 1.97-2.4725 5.6272-2.886 8.0998-0.917 2.9534 2.3524 4.1388 10.534 3.8464 13.724"/>
   <path id="path5656" d="m274.44 360.41c3.61-3.2682 9.8241-11.557 13.472-13.661 4.382-2.5279 10.071-1.0021 12.599 3.3792 2.5281 4.3809 1.0018 10.069-3.3794 12.596-5.2332 3.0195-18.113-0.01-22.692-2.3142"/>
   <path id="path5658" d="m250.74 338.06c3.9633-0.8705 11.887-4.2945 15.397-4.3075 4.2147-0.0164 7.6982 3.4409 7.7135 7.6549 0.016 4.2145-3.441 7.6968-7.6557 7.7128-5.0346 0.0188-13.096-7.4994-15.454-11.06"/>
   <path id="path5660" d="m466.33 368.08c-3.9911 1.8219-11.589 7.2425-15.295 8.0539-4.4518 0.9755-8.9198-1.8865-9.895-6.3372-0.97489-4.451 1.8874-8.9181 6.3388-9.8932 5.3171-1.165 15.549 4.9494 18.851 8.1766"/>
   <path id="path5662" d="m453.44 385.9c-5.5775 1.1474-16.76 5.8015-21.685 5.7532-5.9142-0.0574-10.736-4.973-10.678-10.887 0.0578-5.9135 4.9737-10.734 10.888-10.677 7.0642 0.0691 18.234 10.77 21.475 15.811"/>
   <path id="path5664" d="m428.53 423.25c-4.3886-3.6272-15.024-9.4252-18.072-13.292-3.6615-4.6446-2.851-11.482 1.7939-15.143 4.6452-3.6609 11.484-2.8509 15.145 1.794 4.373 5.5468 3.031 20.956 1.1329 26.64"/>
   <path id="path5666" d="m399.91 428.46c-1.2364-5.5576-6.0699-16.663-6.1006-21.586-0.0376-5.9135 4.8007-10.813 10.715-10.85 5.9142-0.0371 10.815 4.8005 10.851 10.714 0.0447 7.0629-10.478 18.401-15.466 21.723"/>
   <path id="path5668" d="m370.97 410.69c4.7858-0.15687 14.844 1.4535 18.861 0.44725 4.8242-1.2076 7.8017-6.1742 6.5933-10.998-1.2084-4.8242-6.1751-7.801-11-6.5924-5.7618 1.4429-12.793 12.385-14.454 17.143"/>
   <path id="path5670" d="m374.85 371.42c3.5428 2.6238 9.8786 9.5379 13.352 11.11 4.1728 1.8871 9.1618 0.007 11.05-4.1648 1.8878-4.1716 0.007-9.1602-4.1647-11.048-4.983-2.2546-16.317 1.6196-20.237 4.1025"/>
   <path id="path5672" d="m360.55 398.07c3.491-0.68888 11.061-0.71225 13.887-1.9311 3.394-1.4641 4.983-5.4628 3.5186-8.8565-1.4642-3.3934-5.4638-4.9815-8.8574-3.5174-4.0533 1.7479-7.8999 10.616-8.548 14.305"/>
   <path id="path5674" d="m447.93 407.15c-3.0699-4.7944-7.5408-16.051-11.011-19.544-4.1682-4.1952-11.055-4.2184-15.25-0.05-4.1962 4.168-4.2182 11.053-0.0503 15.249 4.9793 5.0106 20.44 5.5418 26.312 4.3451"/>
   <path id="path5676" d="m481.53 389.2c-4.2045-2.1976-12.095-8.4898-16.05-9.5804-4.7506-1.31-9.7409 1.5221-11.051 6.2724-1.3102 4.7501 1.5228 9.7391 6.2733 11.049 5.6747 1.5654 17.076-4.4465 20.828-7.7408"/>
   <path id="path5678" d="m551.81 343.42c-2.722 3.4412-7.0111 11.729-9.9387 14.142-3.5171 2.897-8.7989 2.3875-11.697-1.1289-2.8978-3.5171-2.3881-8.7978 1.1294-11.695 4.2008-3.4611 16.095-2.6841 20.506-1.3178"/>
   <path id="path5680" d="m548.46 365.16c-4.4404 3.5639-12.271 12.804-16.675 15.007-5.2894 2.6455-11.823 0.46875-14.468-4.8202-2.6458-5.2888-0.46919-11.821 4.8207-14.466 6.3179-3.1596 21.139 1.2709 26.323 4.2795"/>
   <path id="path5682" d="m543.33 409.75c-5.5603-1.2262-17.67-1.5374-22.146-3.589-5.376-2.464-7.7737-8.9189-5.3094-14.294 2.4641-5.3766 8.9198-7.7732 14.297-5.3089 6.4217 2.943 12.256 17.269 13.159 23.192"/>
   <path id="path5684" d="m520.23 427.45c-3.6351-4.3824-13.002-12.062-15.275-16.429-2.7305-5.2459-0.65847-11.812 4.5885-14.542 5.2462-2.7301 11.814-0.659 14.544 4.5871 3.2611 6.2656-0.93226 21.154-3.8574 26.384"/>
   <path id="path5686" d="m486.37 424.83c4.187-2.3216 13.873-5.4745 16.988-8.201 3.743-3.2755 4.1276-9.0521 0.852-12.794-3.2756-3.7424-9.053-4.1269-12.796-0.85175-4.4705 3.9115-5.7377 16.856-5.0446 21.847"/>
   <path id="path5688" d="m471.92 388.1c4.349 0.72 13.142 3.984 16.95 3.7994 4.5736-0.22213 8.1565-4.1708 7.9342-8.7441-0.22216-4.5738-4.1711-8.156-8.7454-7.9331-5.4632 0.26512-13.783 8.8806-16.139 12.878"/>
   <path id="path5690" d="m471.35 418.35c2.7929-2.205 9.5193-5.6771 11.478-8.0504 2.3527-2.8506 1.943-7.1338-0.90787-9.4861-2.851-2.3525-7.1348-1.9425-9.4875 0.90737-2.8099 3.4048-2.1887 13.051-1.0826 16.629"/>
   <path id="path5692" d="m553.25 386.59c-4.9194-2.8669-14.032-10.847-18.713-12.373-5.6237-1.8332-11.763 1.2872-13.596 6.9091-1.8324 5.6225 1.2876 11.761 6.9105 13.594 6.7166 2.1898 20.718-4.387 25.398-8.1298"/>
   <path id="path5694" d="m574.96 355.29c-4.7448-0.039-14.636-2.041-18.654-1.2079-4.8252 0.99987-7.9746 5.7958-6.9746 10.621 1.0009 4.8246 5.7973 7.9731 10.623 6.9729 5.7637-1.1948 13.169-11.743 15.006-16.386"/>
   <path id="path5696" d="m446.89 348.75c2.952 0.61962 8.8656 3.1089 11.474 3.0932 3.1332-0.0174 5.6978-2.611 5.6797-5.7438-0.018-3.1326-2.6114-5.6969-5.7452-5.6785-3.7412 0.0214-9.6806 5.6655-11.409 8.329"/>
   <path id="path5698" d="m458.23 358.76c3.9134-0.0722 12.117 1.3614 15.412 0.58612 3.9581-0.9315 6.4494-4.956 5.518-8.9135-0.93126-3.9576-4.9563-6.4485-8.9144-5.518-4.727 1.1129-10.603 9.9754-12.016 13.845"/>
   <path id="path5700" d="m480.57 380.05c2.396-3.0959 8.6536-8.5886 10.114-11.642 1.755-3.668 0.17865-8.1315-3.4889-9.8854-3.6685-1.7544-8.1323-0.179-9.8868 3.4888-2.0952 4.3805 1.1312 14.513 3.2617 18.039"/>
   <path id="path5702" d="m500.56 379.23c-0.01-3.9139 1.5557-12.091 0.83349-15.398-0.86824-3.9714-4.8526-6.5271-8.8249-5.6598-3.9722 0.8675-6.5283 4.8515-5.6612 8.8236 1.0369 4.7434 9.8058 10.76 13.653 12.235"/>
   <path id="path5704" d="m517.28 362.94c-3.2331 0.61688-9.736 3.2145-12.582 3.1464-3.418-0.0821-6.164-2.9639-6.0819-6.3815 0.0823-3.4175 2.9637-6.1635 6.382-6.0816 4.0822 0.0981 10.45 6.3761 12.282 9.3168"/>
   <path id="path5706" d="m508.75 337.19c-1.9803 2.2942-5.1864 7.8878-7.2783 9.4662-2.5132 1.8954-6.1435 1.3876-8.0394-1.1258-1.896-2.5125-1.3874-6.1426 1.1254-8.038 3.0017-2.2645 11.188-1.3765 14.192-0.3025"/>
   <path id="path5708" d="m522.37 352.9c-2.4456 0.0648-7.5261 1.1919-9.6055 0.80075-2.4974-0.46988-4.1661-2.9115-3.6969-5.4085 0.46982-2.4974 2.9123-4.1659 5.4099-3.6968 2.9826 0.56125 6.9006 5.9284 7.8925 8.3045"/>
   <path id="path5710" d="m465.13 372.18c1.3353-3.6784 2.6341-11.903 4.4348-14.769 2.1624-3.4426 6.7775-4.4971 10.221-2.3346 3.4435 2.1618 4.4978 6.7761 2.335 10.219-2.5827 4.1122-12.871 6.8014-16.991 6.8846"/>
   <path id="path5712" d="m439.89 365.21c2.4877-2.1086 6.8303-7.5196 9.3184-8.8476 2.9885-1.5955 6.7623-0.44925 8.3584 2.5388 1.5955 2.9885 0.44869 6.7618-2.5395 8.357-3.5696 1.9055-12.124-0.405-15.137-2.0481"/>
   <path id="path5714" d="m459.8 319.18c3.2532-1.7266 10.747-4.0152 13.182-6.0682 2.9247-2.4665 3.3021-6.9045 0.83562-9.8287s-6.9045-3.3016-9.8299-0.8355c-3.4931 2.9459-4.6498 12.884-4.1877 16.732"/>
   <path id="path5716" d="m478.26 319.71c3.6146-3.1284 12.43-8.1964 14.915-11.5 2.9846-3.9685 2.1744-9.6916-1.7942-12.676-3.9681-2.9839-9.692-2.1739-12.677 1.7939-3.5648 4.7392-2.145 17.647-0.44369 22.381"/>
   <path id="path5718" d="m515.86 322.21c-0.1729-4.7768 1.4006-14.822 0.38306-18.828-1.2226-4.8115-6.1906-7.767-11.004-6.5441-4.8126 1.2218-7.7681 6.1898-6.5454 11.002 1.4603 5.7472 12.41 12.729 17.166 14.37"/>
   <path id="path5720" d="m533.97 305.81c-3.0697-3.6638-7.9966-12.558-11.26-15.095-3.9198-3.0472-9.6562-2.3294-12.704 1.5895-3.0483 3.9196-2.33 9.6551 1.5901 12.703 4.6822 3.6392 17.612 2.4271 22.374 0.8025"/>
   <path id="path5722" d="m536.92 277.46c-2.5511 3.1068-6.6191 10.627-9.3418 12.788-3.2706 2.5955-8.1004 2.0392-10.696-1.2306-2.5959-3.2698-2.0405-8.0992 1.23-10.694 3.9067-3.1 14.789-2.1898 18.807-0.86312"/>
   <path id="path5724" d="m508.77 259.97c-0.0634 3.701 1.3042 11.454 0.57558 14.57-0.875 3.7432-4.6775 6.1049-8.4212 5.2296-3.744-0.87488-6.1052-4.6768-5.2302-8.4204 1.0446-4.4701 9.4176-10.037 13.076-11.379"/>
   <path id="path5726" d="m533.84 264.07c-2.2432 1.9729-6.1276 7.0016-8.3836 8.2601-2.71 1.512-6.1854 0.52587-7.6975-2.1838-1.5126-2.7089-0.52633-6.1841 2.1837-7.696 3.2362-1.8058 11.109 0.1655 13.897 1.6196"/>
   <path id="path5728" d="m495.23 326.9c-1.6241-4.4954-6.8371-13.225-7.3899-17.322-0.66447-4.9196 2.8408-9.5174 7.7614-10.181 4.9209-0.66362 9.5186 2.8402 10.182 7.7609 0.79336 5.8762-6.7548 16.443-10.554 19.742"/>
   <path id="path5730" d="m466.1 340.09c0.68572-3.9235 0.52732-12.394 1.8219-15.585 1.5557-3.8336 5.9928-5.7086 9.8263-4.1531 3.8337 1.5555 5.7098 5.992 4.1543 9.8245-1.8586 4.5782-11.69 9.0985-15.802 9.9135"/>
  </g>
  <g fill="#008f33">
   <path id="path5732" d="m355.32 324.63c-2.9523-0.91525-9.4878-1.631-11.816-2.9434-2.7964-1.5761-3.8012-5.1754-2.2248-7.9721 1.5762-2.7964 5.1765-3.8005 7.9729-2.2241 3.3404 1.8822 5.8476 9.8946 6.068 13.14"/>
   <path id="path5734" d="m340.18 327.95c-3.4691-2.014-11.529-4.8154-14.094-7.1504-3.0807-2.8049-3.3071-7.65-0.50144-10.73 2.8049-3.0801 7.6503-3.3066 10.731-0.50162 3.6795 3.3498 4.5261 14.212 3.8642 18.382"/>
   <path id="path5736" d="m309.57 335.89c-0.60384-3.9649-3.4711-12-3.2577-15.462 0.25541-4.158 3.8899-7.3701 8.0486-7.1142 4.158 0.2555 7.3712 3.8891 7.1153 8.0476-0.30542 4.9659-8.2412 12.433-11.906 14.529"/>
   <path id="path5738" d="m292.09 325.2c1.958-3.5001 4.6297-11.603 6.924-14.204 2.7549-3.1249 7.5968-3.4292 10.722-0.67425 3.1253 2.7549 3.4297 7.5954 0.67372 10.72-3.2905 3.7318-14.14 4.7534-18.319 4.1578"/>
   <path id="path5740" d="m285.22 302.29c2.5884 2.1632 7.1178 7.7276 9.7001 9.0836 3.1016 1.6282 6.9969 0.416 8.6252-2.6858 1.6287-3.1015 0.41644-6.9956-2.6858-8.6241-3.7044-1.9452-12.535 0.50562-15.64 2.2262"/>
   <path id="path5742" d="m305.69 283.47c0.63046 3.0411 0.71485 9.6459 1.8028 12.101 1.3059 2.9491 4.8101 4.3024 7.7598 2.9959 2.9495-1.306 4.3022-4.8096 2.9957-7.7588-1.56-3.5228-9.3331-6.8039-12.558-7.3385"/>
   <path id="path5744" d="m285.67 290.77c2.1576 1.2768 6.1464 4.815 8.2029 5.5004 2.47 0.823 5.1814-0.533 6.0046-3.003 0.82287-2.4694-0.53295-5.1806-3.0034-6.0038-2.9502-0.98263-9.1327 1.8719-11.204 3.5064"/>
   <path id="path5746" d="m327.32 336.53c0.63684-3.96 3.5696-11.971 3.3854-15.435-0.22141-4.1599-3.829-7.402-7.9895-7.1805-4.1603 0.22175-7.4037 3.8289-7.1819 7.9888 0.26442 4.9684 8.1388 12.501 11.786 14.627"/>
   <path id="path5748" d="m353.4 342.86c-1.1779-3.1274-2.3716-10.135-3.9376-12.563-1.8818-2.9172-5.8323-3.7701-8.75-1.8886-2.9173 1.8811-3.7703 5.8312-1.8889 8.7488 2.2472 3.4838 11.059 5.6742 14.576 5.7034"/>
   <path id="path5750" d="m374.72 321.7c3.9911 1.8216 11.588 7.2425 15.295 8.0544 4.4516 0.97475 8.9194-1.8872 9.8943-6.338 0.97526-4.4508-1.8871-8.9185-6.3382-9.8936-5.3171-1.1639-15.549 4.9494-18.851 8.1772"/>
   <path id="path5752" d="m387.61 339.53c5.5777 1.1466 16.761 5.8011 21.684 5.7532 5.9142-0.0581 10.736-4.9738 10.679-10.887-0.0578-5.9131-4.9741-10.734-10.889-10.677-7.0636 0.0688-18.233 10.77-21.474 15.811"/>
   <path id="path5754" d="m412.51 376.87c4.3894-3.6272 15.024-9.4252 18.072-13.292 3.6608-4.6442 2.8506-11.482-1.7943-15.143-4.6452-3.6605-11.484-2.8505-15.144 1.794-4.3731 5.5474-3.0314 20.956-1.1337 26.641"/>
   <path id="path5756" d="m441.14 382.09c1.2364-5.5576 6.0706-16.663 6.101-21.586 0.0376-5.9134-4.801-10.813-10.715-10.85-5.9142-0.0376-10.814 4.8001-10.851 10.714-0.0448 7.0625 10.477 18.401 15.466 21.722"/>
   <path id="path5758" d="m470.08 364.32c-4.7856-0.15738-14.843 1.4528-18.86 0.44712-4.8242-1.2086-7.8017-6.1741-6.5941-10.998 1.2088-4.8235 6.1755-7.8006 11-6.5928 5.7622 1.4432 12.794 12.386 14.454 17.144"/>
   <path id="path5760" d="m466.19 325.04c-3.5424 2.6238-9.8786 9.5385-13.352 11.11-4.1721 1.8882-9.1614 0.007-11.05-4.1641-1.8881-4.1715-0.007-9.1601 4.1651-11.048 4.9836-2.2539 16.317 1.6196 20.236 4.1029"/>
   <path id="path5762" d="m480.5 351.7c-3.4906-0.68812-11.061-0.71187-13.886-1.9308-3.3944-1.4638-4.9826-5.4624-3.519-8.8561 1.4642-3.3934 5.4638-4.9822 8.8578-3.5181 4.0533 1.7486 7.9001 10.617 8.5476 14.305"/>
   <path id="path5764" d="m393.12 360.78c3.0704-4.7945 7.5409-16.051 11.011-19.544 4.1686-4.195 11.055-4.218 15.251-0.05 4.1958 4.1684 4.2181 11.054 0.0495 15.249-4.979 5.0102-20.439 5.5414-26.312 4.3445"/>
   <path id="path5766" d="m359.52 342.82c4.2051-2.1975 12.095-8.4894 16.051-9.58 4.7512-1.3104 9.7409 1.5225 11.051 6.272 1.3101 4.7509-1.5225 9.7398-6.2733 11.049-5.6743 1.5648-17.076-4.4465-20.828-7.7414"/>
  </g>
 </g>
</svg>
